<svg width="139" height="28" viewBox="0 0 139 28" fill="none" xmlns="http://www.w3.org/2000/svg">
<path d="M43.9679 0.389429V27.7274H37.3087V16.4729H6.65925V27.7274H0V0.389429H6.65925V11.0987H37.3087V0.389429H43.9679Z" fill="#ED5959"/>
<path d="M61.7043 28C59.1341 28 56.7715 27.4029 54.6167 26.2086C52.4878 25.0144 50.7873 23.3528 49.5152 21.2239C48.269 19.0691 47.6459 16.6546 47.6459 13.9805C47.6459 11.3064 48.269 8.90496 49.5152 6.77608C50.7873 4.64719 52.4878 2.98563 54.6167 1.79138C56.7715 0.597126 59.1341 0 61.7043 0C64.2745 0 66.6241 0.597126 68.753 1.79138C70.9078 2.98563 72.5954 4.64719 73.8156 6.77608C75.0618 8.90496 75.6848 11.3064 75.6848 13.9805C75.6848 16.6546 75.0618 19.0691 73.8156 21.2239C72.5694 23.3528 70.8819 25.0144 68.753 26.2086C66.6241 27.4029 64.2745 28 61.7043 28ZM61.7043 21.9249C63.8851 21.9249 65.6246 21.198 66.9227 19.7441C68.2467 18.2902 68.9088 16.369 68.9088 13.9805C68.9088 11.5661 68.2467 9.64488 66.9227 8.21697C65.6246 6.7631 63.8851 6.03616 61.7043 6.03616C59.4975 6.03616 57.7321 6.75011 56.4081 8.17802C55.11 9.60593 54.4609 11.5401 54.4609 13.9805C54.4609 16.395 55.11 18.3292 56.4081 19.783C57.7321 21.2109 59.4975 21.9249 61.7043 21.9249Z" fill="#ED5959"/>
<path d="M99.0558 0.389429V5.72462H91.8124V27.7274H85.1532V5.72462H77.9098V0.389429H99.0558Z" fill="#ED5959"/>
<path d="M109.057 5.72462V11.2545H117.975V16.395H109.057V22.3922H119.143V27.7274H102.398V0.389429H119.143V5.72462H109.057Z" fill="#ED5959"/>
<path d="M130.126 22.5869H138.849V27.7274H123.467V0.389429H130.126V22.5869Z" fill="#ED5959"/>
</svg>
